<svg width="108" height="32" viewBox="0 0 108 32" fill="none" xmlns="http://www.w3.org/2000/svg">
<rect width="108" height="32" rx="5.20927" fill="#B0D3F4"/>
<path d="M21.0086 22C21.1118 22 21.1955 21.9163 21.1955 21.8131L21.1955 16.6229C21.1955 16.5194 21.2795 16.4357 21.3829 16.436L26.5568 16.4507C26.6602 16.451 26.7442 16.3673 26.7442 16.2638L26.7442 15.7826C26.7442 15.6796 26.6609 15.596 26.5578 15.5957L21.3497 15.5809C21.2468 15.5806 21.1636 15.4974 21.1633 15.3946L21.1485 10.1864C21.1482 10.0834 21.0646 10 20.9616 10L20.4809 10C20.3773 10 20.2934 10.0843 20.294 10.188L20.3235 15.3761C20.3241 15.4799 20.2399 15.5643 20.1361 15.564L14.9316 15.5493C14.8282 15.549 14.7442 15.6327 14.7442 15.7361V16.2174C14.7442 16.3204 14.8276 16.404 14.9306 16.4043L20.1388 16.4191C20.2416 16.4194 20.3248 16.5026 20.3251 16.6054L20.3399 21.8136C20.3402 21.9166 20.4238 22 20.5268 22H21.0086Z" fill="#413D4B"/>
<path d="M37.1471 12.9323L35.7758 16.7182H38.5653L37.194 12.9323H37.1471ZM34.592 20H33.3964L36.5611 11.6079H37.78L40.9447 20H39.7491L38.9404 17.7262H35.4124L34.592 20ZM44.1482 19.203C44.6796 19.203 45.1132 19.0115 45.4492 18.6287C45.8009 18.2458 45.9767 17.7457 45.9767 17.1284C45.9767 16.5267 45.8009 16.0305 45.4492 15.6398C45.1054 15.2491 44.6717 15.0538 44.1482 15.0538C43.6325 15.0538 43.1988 15.2491 42.8472 15.6398C42.4956 16.0305 42.3198 16.5267 42.3198 17.1284C42.3198 17.7379 42.4956 18.2341 42.8472 18.6169C43.1988 19.0076 43.6325 19.203 44.1482 19.203ZM43.9724 20.1875C43.2223 20.1875 42.5776 19.8906 42.0385 19.2967C41.5071 18.6951 41.2414 17.9723 41.2414 17.1284C41.2414 16.2845 41.5071 15.5617 42.0385 14.96C42.5776 14.3662 43.2223 14.0693 43.9724 14.0693C44.3943 14.0693 44.7772 14.1591 45.121 14.3388C45.4727 14.5186 45.7422 14.7569 45.9298 15.0538H45.9767L45.9298 14.2568V11.6079H47.0081V20H45.9767V19.203H45.9298C45.7422 19.4999 45.4727 19.7382 45.121 19.918C44.7772 20.0977 44.3943 20.1875 43.9724 20.1875ZM50.8442 19.203C51.3755 19.203 51.8092 19.0115 52.1452 18.6287C52.4968 18.2458 52.6727 17.7457 52.6727 17.1284C52.6727 16.5267 52.4968 16.0305 52.1452 15.6398C51.8014 15.2491 51.3677 15.0538 50.8442 15.0538C50.3285 15.0538 49.8948 15.2491 49.5432 15.6398C49.1916 16.0305 49.0158 16.5267 49.0158 17.1284C49.0158 17.7379 49.1916 18.2341 49.5432 18.6169C49.8948 19.0076 50.3285 19.203 50.8442 19.203ZM50.6684 20.1875C49.9183 20.1875 49.2736 19.8906 48.7345 19.2967C48.2031 18.6951 47.9374 17.9723 47.9374 17.1284C47.9374 16.2845 48.2031 15.5617 48.7345 14.96C49.2736 14.3662 49.9183 14.0693 50.6684 14.0693C51.0903 14.0693 51.4732 14.1591 51.817 14.3388C52.1687 14.5186 52.4382 14.7569 52.6258 15.0538H52.6727L52.6258 14.2568V11.6079H53.7041V20H52.6727V19.203H52.6258C52.4382 19.4999 52.1687 19.7382 51.817 19.918C51.4732 20.0977 51.0903 20.1875 50.6684 20.1875ZM58.8601 16.601V20H57.7818V11.6079H60.6416C61.3683 11.6079 61.9856 11.8501 62.4935 12.3346C63.0093 12.819 63.2671 13.409 63.2671 14.1044C63.2671 14.8155 63.0093 15.4093 62.4935 15.886C61.9934 16.3626 61.3761 16.601 60.6416 16.601H58.8601ZM58.8601 12.6393V15.5695H60.6651C61.0948 15.5695 61.4504 15.425 61.7317 15.1358C62.0208 14.8467 62.1654 14.5029 62.1654 14.1044C62.1654 13.7137 62.0208 13.3738 61.7317 13.0847C61.4504 12.7878 61.0948 12.6393 60.6651 12.6393H58.8601ZM65.2884 20H64.2101V14.2568H65.2415V15.1945H65.2884C65.3978 14.8897 65.6205 14.6319 65.9565 14.4209C66.3003 14.2021 66.6363 14.0927 66.9645 14.0927C67.277 14.0927 67.5427 14.1396 67.7615 14.2333L67.4333 15.2765C67.3005 15.2218 67.0895 15.1945 66.8004 15.1945C66.3941 15.1945 66.0385 15.3585 65.7338 15.6867C65.4369 16.0149 65.2884 16.3978 65.2884 16.8354V20ZM67.785 17.1284C67.785 16.2454 68.0624 15.5148 68.6172 14.9366C69.1798 14.3584 69.887 14.0693 70.7387 14.0693C71.5904 14.0693 72.2937 14.3584 72.8484 14.9366C73.411 15.5148 73.6923 16.2454 73.6923 17.1284C73.6923 18.0192 73.411 18.7498 72.8484 19.3202C72.2937 19.8984 71.5904 20.1875 70.7387 20.1875C69.887 20.1875 69.1798 19.8984 68.6172 19.3202C68.0624 18.742 67.785 18.0114 67.785 17.1284ZM68.8634 17.1284C68.8634 17.7457 69.0431 18.2458 69.4025 18.6287C69.762 19.0115 70.2073 19.203 70.7387 19.203C71.27 19.203 71.7154 19.0115 72.0749 18.6287C72.4343 18.2458 72.614 17.7457 72.614 17.1284C72.614 16.5189 72.4343 16.0227 72.0749 15.6398C71.7076 15.2491 71.2622 15.0538 70.7387 15.0538C70.2152 15.0538 69.7698 15.2491 69.4025 15.6398C69.0431 16.0227 68.8634 16.5189 68.8634 17.1284ZM76.0094 12.276C76.0094 12.4869 75.9352 12.6667 75.7867 12.8151C75.6383 12.9636 75.4585 13.0378 75.2476 13.0378C75.0366 13.0378 74.8569 12.9636 74.7084 12.8151C74.5599 12.6667 74.4857 12.4869 74.4857 12.276C74.4857 12.065 74.5599 11.8853 74.7084 11.7368C74.8569 11.5883 75.0366 11.5141 75.2476 11.5141C75.4585 11.5141 75.6383 11.5883 75.7867 11.7368C75.9352 11.8853 76.0094 12.065 76.0094 12.276ZM74.0638 22.6489C73.8293 22.6489 73.6184 22.6098 73.4308 22.5317L73.7121 21.594C73.8371 21.6409 73.9426 21.6644 74.0286 21.6644C74.4662 21.6644 74.6928 21.3948 74.7084 20.8556V14.2568H75.7867V20.6915C75.7867 21.9965 75.2124 22.6489 74.0638 22.6489ZM79.7114 20.1875C78.8675 20.1875 78.172 19.8984 77.6251 19.3202C77.0781 18.742 76.8046 18.0114 76.8046 17.1284C76.8046 16.2532 77.0703 15.5265 77.6016 14.9483C78.133 14.3623 78.8128 14.0693 79.641 14.0693C80.4928 14.0693 81.1687 14.3466 81.6687 14.9014C82.1767 15.4484 82.4306 16.2181 82.4306 17.2104L82.4189 17.3276H77.9064C77.922 17.8902 78.1095 18.3435 78.469 18.6873C78.8284 19.0311 79.2582 19.203 79.7583 19.203C80.4459 19.203 80.985 18.8592 81.3757 18.1715L82.3368 18.6404C82.079 19.1248 81.7195 19.5038 81.2585 19.7773C80.8053 20.0508 80.2896 20.1875 79.7114 20.1875ZM77.9884 16.4369H81.282C81.2507 16.0384 81.0866 15.7102 80.7897 15.4523C80.5006 15.1866 80.1099 15.0538 79.6176 15.0538C79.2113 15.0538 78.8597 15.1788 78.5627 15.4289C78.2736 15.6789 78.0822 16.0149 77.9884 16.4369ZM86.0994 20.1875C85.2477 20.1875 84.5405 19.8984 83.9779 19.3202C83.4232 18.7263 83.1458 17.9957 83.1458 17.1284C83.1458 16.2454 83.4232 15.5148 83.9779 14.9366C84.5405 14.3584 85.2477 14.0693 86.0994 14.0693C86.6855 14.0693 87.1973 14.2177 87.6348 14.5146C88.0724 14.8038 88.4006 15.2062 88.6194 15.7219L87.6348 16.1321C87.3301 15.4132 86.7949 15.0538 86.0291 15.0538C85.5368 15.0538 85.111 15.2531 84.7515 15.6516C84.3999 16.0501 84.2241 16.5423 84.2241 17.1284C84.2241 17.7144 84.3999 18.2067 84.7515 18.6052C85.111 19.0037 85.5368 19.203 86.0291 19.203C86.8183 19.203 87.3731 18.8435 87.6934 18.1247L88.6546 18.5349C88.4436 19.0506 88.1115 19.4569 87.6583 19.7539C87.2129 20.043 86.6933 20.1875 86.0994 20.1875ZM91.8142 20.0938C91.3454 20.0938 90.9547 19.9492 90.6422 19.6601C90.3374 19.371 90.1811 18.9686 90.1733 18.4528V15.2413H89.1653V14.2568H90.1733V12.4987H91.2516V14.2568H92.6581V15.2413H91.2516V18.1012C91.2516 18.4841 91.3259 18.7459 91.4743 18.8865C91.6228 19.0194 91.7908 19.0858 91.9783 19.0858C92.0643 19.0858 92.1463 19.078 92.2245 19.0623C92.3104 19.0389 92.3886 19.0115 92.4589 18.9803L92.7988 19.9414C92.5175 20.043 92.1893 20.0938 91.8142 20.0938Z" fill="#413D4B"/>
</svg>
