<?xml version="1.0" encoding="UTF-8"?>
<!DOCTYPE svg PUBLIC "-//W3C//DTD SVG 1.1//EN" "http://www.w3.org/Graphics/SVG/1.1/DTD/svg11.dtd">
<svg xmlns="http://www.w3.org/2000/svg" version="1.1" width="1200px" height="1224px" style="shape-rendering:geometricPrecision; text-rendering:geometricPrecision; image-rendering:optimizeQuality; fill-rule:evenodd; clip-rule:evenodd" xmlns:xlink="http://www.w3.org/1999/xlink">
<g><path style="opacity:0.998" fill="#ea4334" d="M 576.5,-0.5 C 600.167,-0.5 623.833,-0.5 647.5,-0.5C 791.453,8.50609 916.119,61.6728 1021.5,159C 962.986,217.68 904.32,276.18 845.5,334.5C 767.585,264.698 676.251,235.198 571.5,246C 466.957,260.648 383.457,310.148 321,394.5C 298.856,425.519 281.69,459.186 269.5,495.5C 201.148,442.809 132.815,390.143 64.5,337.5C 137.27,196.234 247.603,96.4008 395.5,38C 454.101,16.3814 514.434,3.54808 576.5,-0.5 Z"/></g>
<g><path style="opacity:0.999" fill="#fabb05" d="M 64.5,337.5 C 132.815,390.143 201.148,442.809 269.5,495.5C 242.833,572.833 242.833,650.167 269.5,727.5C 201.317,780.418 132.984,833.084 64.5,885.5C 26.4361,810.24 4.7694,730.573 -0.5,646.5C -0.5,623.167 -0.5,599.833 -0.5,576.5C 4.7694,492.427 26.4361,412.76 64.5,337.5 Z"/></g>
<g><path style="opacity:1" fill="#4284f3" d="M 1199.5,605.5 C 1199.5,619.167 1199.5,632.833 1199.5,646.5C 1197.17,750.494 1171.67,848.494 1123,940.5C 1094.81,991.195 1059.31,1036.2 1016.5,1075.5C 950.167,1024.17 883.833,972.833 817.5,921.5C 875.933,881.696 915.1,827.696 935,759.5C 937.138,752.283 938.638,744.95 939.5,737.5C 829.833,737.5 720.167,737.5 610.5,737.5C 610.5,658.167 610.5,578.833 610.5,499.5C 803.167,499.5 995.833,499.5 1188.5,499.5C 1194.29,534.76 1197.96,570.093 1199.5,605.5 Z"/></g>
<g><path style="opacity:0.999" fill="#34a752" d="M 269.5,727.5 C 308.318,838.819 382.651,915.986 492.5,959C 561.416,982.263 631.416,985.93 702.5,970C 743.753,960.362 782.087,944.196 817.5,921.5C 883.833,972.833 950.167,1024.17 1016.5,1075.5C 956.858,1130.68 887.858,1170.52 809.5,1195C 756.844,1211 703.177,1220.5 648.5,1223.5C 624.5,1223.5 600.5,1223.5 576.5,1223.5C 380.538,1207.47 225.038,1120.47 110,962.5C 92.8059,938.124 77.6393,912.458 64.5,885.5C 132.984,833.084 201.317,780.418 269.5,727.5 Z"/></g>
</svg>
